<mxfile host="Electron" modified="2024-05-10T15:45:59.499Z" agent="Mozilla/5.0 (Windows NT 10.0; Win64; x64) AppleWebKit/537.36 (KHTML, like Gecko) draw.io/24.2.5 Chrome/120.0.6099.109 Electron/28.1.0 Safari/537.36" etag="rGY6wXMQ4AwnDyXzGQpo" version="24.2.5" type="device">
  <diagram name="第 1 页" id="lGHraHcWh0GdLuIry4LX">
    <mxGraphModel dx="1220" dy="2080" grid="1" gridSize="10" guides="1" tooltips="1" connect="1" arrows="1" fold="1" page="1" pageScale="1" pageWidth="827" pageHeight="1169" math="0" shadow="0">
      <root>
        <mxCell id="0" />
        <mxCell id="1" parent="0" />
        <mxCell id="N2vVskcMrBZZl0nwfb5V-110" style="edgeStyle=orthogonalEdgeStyle;rounded=0;orthogonalLoop=1;jettySize=auto;html=1;entryX=0.5;entryY=0;entryDx=0;entryDy=0;" edge="1" parent="1" source="N2vVskcMrBZZl0nwfb5V-1" target="N2vVskcMrBZZl0nwfb5V-85">
          <mxGeometry relative="1" as="geometry" />
        </mxCell>
        <mxCell id="N2vVskcMrBZZl0nwfb5V-1" value="RootNode" style="rounded=0;whiteSpace=wrap;html=1;" vertex="1" parent="1">
          <mxGeometry x="800" y="-160" width="120" height="60" as="geometry" />
        </mxCell>
        <mxCell id="N2vVskcMrBZZl0nwfb5V-2" value="Context" style="rounded=0;whiteSpace=wrap;html=1;verticalAlign=top;fontStyle=1;fontSize=13;" vertex="1" parent="1">
          <mxGeometry x="20" y="-350" width="280" height="295" as="geometry" />
        </mxCell>
        <mxCell id="N2vVskcMrBZZl0nwfb5V-3" value="Blackboard" style="rounded=0;whiteSpace=wrap;html=1;verticalAlign=top;fontStyle=1;fontSize=13;" vertex="1" parent="1">
          <mxGeometry x="490" y="-350" width="210" height="170" as="geometry" />
        </mxCell>
        <mxCell id="N2vVskcMrBZZl0nwfb5V-4" value="PlayerGameplayInputHandler" style="rounded=1;whiteSpace=wrap;html=1;" vertex="1" parent="1">
          <mxGeometry x="30" y="-305" width="260" height="40" as="geometry" />
        </mxCell>
        <mxCell id="N2vVskcMrBZZl0nwfb5V-6" value="Animator Controller" style="rounded=1;whiteSpace=wrap;html=1;" vertex="1" parent="1">
          <mxGeometry x="30" y="-255" width="260" height="40" as="geometry" />
        </mxCell>
        <mxCell id="N2vVskcMrBZZl0nwfb5V-111" style="edgeStyle=orthogonalEdgeStyle;rounded=0;orthogonalLoop=1;jettySize=auto;html=1;entryX=0.5;entryY=0;entryDx=0;entryDy=0;" edge="1" parent="1" source="N2vVskcMrBZZl0nwfb5V-85" target="N2vVskcMrBZZl0nwfb5V-90">
          <mxGeometry relative="1" as="geometry" />
        </mxCell>
        <mxCell id="N2vVskcMrBZZl0nwfb5V-85" value="Always Running&lt;div&gt;Decorator Node&lt;/div&gt;" style="rounded=0;whiteSpace=wrap;html=1;" vertex="1" parent="1">
          <mxGeometry x="800" y="-70" width="120" height="60" as="geometry" />
        </mxCell>
        <mxCell id="N2vVskcMrBZZl0nwfb5V-112" style="edgeStyle=orthogonalEdgeStyle;rounded=0;orthogonalLoop=1;jettySize=auto;html=1;entryX=0.5;entryY=0;entryDx=0;entryDy=0;" edge="1" parent="1" source="N2vVskcMrBZZl0nwfb5V-90" target="N2vVskcMrBZZl0nwfb5V-109">
          <mxGeometry relative="1" as="geometry" />
        </mxCell>
        <mxCell id="N2vVskcMrBZZl0nwfb5V-114" style="edgeStyle=orthogonalEdgeStyle;rounded=0;orthogonalLoop=1;jettySize=auto;html=1;" edge="1" parent="1" source="N2vVskcMrBZZl0nwfb5V-90" target="N2vVskcMrBZZl0nwfb5V-93">
          <mxGeometry relative="1" as="geometry" />
        </mxCell>
        <mxCell id="N2vVskcMrBZZl0nwfb5V-90" value="Selector" style="rounded=0;whiteSpace=wrap;html=1;" vertex="1" parent="1">
          <mxGeometry x="800" y="10" width="120" height="60" as="geometry" />
        </mxCell>
        <mxCell id="N2vVskcMrBZZl0nwfb5V-120" style="edgeStyle=orthogonalEdgeStyle;rounded=0;orthogonalLoop=1;jettySize=auto;html=1;entryX=0.5;entryY=0;entryDx=0;entryDy=0;" edge="1" parent="1" source="N2vVskcMrBZZl0nwfb5V-93" target="N2vVskcMrBZZl0nwfb5V-118">
          <mxGeometry relative="1" as="geometry" />
        </mxCell>
        <mxCell id="N2vVskcMrBZZl0nwfb5V-93" value="&lt;div&gt;In Air&lt;/div&gt;&lt;div&gt;Decorator Node&lt;/div&gt;" style="rounded=0;whiteSpace=wrap;html=1;" vertex="1" parent="1">
          <mxGeometry x="1030" y="110" width="120" height="60" as="geometry" />
        </mxCell>
        <mxCell id="N2vVskcMrBZZl0nwfb5V-108" value="&lt;div&gt;Touching Wall&lt;/div&gt;&lt;div&gt;Decorator Node&lt;/div&gt;" style="rounded=0;whiteSpace=wrap;html=1;fillColor=#dae8fc;strokeColor=#6c8ebf;" vertex="1" parent="1">
          <mxGeometry x="800" y="110" width="120" height="60" as="geometry" />
        </mxCell>
        <mxCell id="N2vVskcMrBZZl0nwfb5V-109" value="Grounded&lt;div&gt;Decorator Node&lt;/div&gt;" style="rounded=0;whiteSpace=wrap;html=1;fillColor=#fff2cc;strokeColor=#d6b656;" vertex="1" parent="1">
          <mxGeometry x="580" y="110" width="120" height="60" as="geometry" />
        </mxCell>
        <mxCell id="N2vVskcMrBZZl0nwfb5V-113" style="edgeStyle=orthogonalEdgeStyle;rounded=0;orthogonalLoop=1;jettySize=auto;html=1;entryX=0.5;entryY=0;entryDx=0;entryDy=0;" edge="1" parent="1" source="N2vVskcMrBZZl0nwfb5V-90" target="N2vVskcMrBZZl0nwfb5V-108">
          <mxGeometry relative="1" as="geometry" />
        </mxCell>
        <mxCell id="N2vVskcMrBZZl0nwfb5V-115" style="edgeStyle=orthogonalEdgeStyle;rounded=0;orthogonalLoop=1;jettySize=auto;html=1;entryX=0.5;entryY=0;entryDx=0;entryDy=0;" edge="1" parent="1" source="N2vVskcMrBZZl0nwfb5V-116" target="N2vVskcMrBZZl0nwfb5V-117">
          <mxGeometry relative="1" as="geometry" />
        </mxCell>
        <mxCell id="N2vVskcMrBZZl0nwfb5V-116" value="&lt;div&gt;Ledge Detected&lt;/div&gt;&lt;div&gt;Decorator Node&lt;/div&gt;" style="rounded=0;whiteSpace=wrap;html=1;" vertex="1" parent="1">
          <mxGeometry x="890" y="320" width="120" height="60" as="geometry" />
        </mxCell>
        <mxCell id="N2vVskcMrBZZl0nwfb5V-117" value="&lt;div&gt;Ledge Climb&lt;/div&gt;&lt;div&gt;Action Node&lt;/div&gt;" style="rounded=0;whiteSpace=wrap;html=1;" vertex="1" parent="1">
          <mxGeometry x="890" y="430" width="120" height="60" as="geometry" />
        </mxCell>
        <mxCell id="N2vVskcMrBZZl0nwfb5V-121" style="edgeStyle=orthogonalEdgeStyle;rounded=0;orthogonalLoop=1;jettySize=auto;html=1;entryX=0.5;entryY=0;entryDx=0;entryDy=0;" edge="1" parent="1" source="N2vVskcMrBZZl0nwfb5V-118" target="N2vVskcMrBZZl0nwfb5V-116">
          <mxGeometry relative="1" as="geometry" />
        </mxCell>
        <mxCell id="N2vVskcMrBZZl0nwfb5V-122" style="edgeStyle=orthogonalEdgeStyle;rounded=0;orthogonalLoop=1;jettySize=auto;html=1;" edge="1" parent="1" source="N2vVskcMrBZZl0nwfb5V-118" target="N2vVskcMrBZZl0nwfb5V-119">
          <mxGeometry relative="1" as="geometry" />
        </mxCell>
        <mxCell id="N2vVskcMrBZZl0nwfb5V-124" style="edgeStyle=orthogonalEdgeStyle;rounded=0;orthogonalLoop=1;jettySize=auto;html=1;entryX=0.5;entryY=0;entryDx=0;entryDy=0;" edge="1" parent="1" source="N2vVskcMrBZZl0nwfb5V-118" target="N2vVskcMrBZZl0nwfb5V-123">
          <mxGeometry relative="1" as="geometry" />
        </mxCell>
        <mxCell id="N2vVskcMrBZZl0nwfb5V-118" value="&lt;div&gt;Selector Node&lt;/div&gt;" style="rounded=0;whiteSpace=wrap;html=1;" vertex="1" parent="1">
          <mxGeometry x="1030" y="220" width="120" height="60" as="geometry" />
        </mxCell>
        <mxCell id="N2vVskcMrBZZl0nwfb5V-119" value="&lt;div&gt;Ability Input&lt;/div&gt;&lt;div&gt;Decorator Node&lt;/div&gt;" style="rounded=0;whiteSpace=wrap;html=1;fillColor=#008a00;strokeColor=#005700;fontColor=#ffffff;" vertex="1" parent="1">
          <mxGeometry x="1030" y="320" width="120" height="60" as="geometry" />
        </mxCell>
        <mxCell id="N2vVskcMrBZZl0nwfb5V-123" value="&lt;div&gt;In Air&lt;/div&gt;&lt;div&gt;Action Node&lt;/div&gt;" style="rounded=0;whiteSpace=wrap;html=1;" vertex="1" parent="1">
          <mxGeometry x="1180" y="320" width="120" height="60" as="geometry" />
        </mxCell>
      </root>
    </mxGraphModel>
  </diagram>
</mxfile>
